<svg version="1.1" xmlns="http://www.w3.org/2000/svg" viewBox="0 0 1053.4075216162428 409.17794846094955" width="1053.4075216162428" height="409.17794846094955">
  <!-- svg-source:excalidraw -->
  <rect x="0" y="0" width="1053.4075216162428" height="409.17794846094955" fill="transparent"></rect><g transform="translate(34.31760902721828 76.22126043519117) rotate(0 35.15625 12)"><text x="0" y="0" font-family="Consolas, Segoe UI Emoji" font-size="20px" fill="#ff7b61" text-anchor="start" style="white-space: pre;" direction="ltr" dominant-baseline="text-before-edge">object</text></g><g stroke-linecap="round" transform="translate(526.6140979728817 112.37655467933789) rotate(0 134.75665901891983 21.93022956958679)"><path d="M0 0 C55.01 0.35, 108.85 0.58, 269.51 0 M0 0 C57.83 -0.19, 115.47 -0.15, 269.51 0 M269.51 0 C269.95 17, 269.06 35.4, 269.51 43.86 M269.51 0 C269.26 13.73, 269.53 27.26, 269.51 43.86 M269.51 43.86 C174.65 43.23, 79.05 43.17, 0 43.86 M269.51 43.86 C189.77 43.69, 109.71 43.9, 0 43.86 M0 43.86 C-0.11 28.69, -0.63 14.07, 0 0 M0 43.86 C-0.15 29.38, -0.16 15.14, 0 0" stroke="#ccc" stroke-width="4" fill="none"></path></g><g stroke-linecap="round" transform="translate(526.6140979728817 243.85741773922788) rotate(0 134.75665901891983 21.930229569586785)"><path d="M0 0 C57.24 -0.43, 114.61 0.1, 269.51 0 M0 0 C77.33 -1.06, 154.55 -0.61, 269.51 0 M269.51 0 C269.02 15.51, 269.54 31.4, 269.51 43.86 M269.51 0 C269.7 14.68, 269.04 29.7, 269.51 43.86 M269.51 43.86 C209.4 43.7, 149.07 43.85, 0 43.86 M269.51 43.86 C202.48 42.93, 135.1 43.09, 0 43.86 M0 43.86 C-0.57 31.42, -0.13 20.84, 0 0 M0 43.86 C0.18 33.18, -0.35 22.24, 0 0" stroke="#ccc" stroke-width="4" fill="none"></path></g><g stroke-linecap="round" transform="translate(526.6140979728817 68.54960032603273) rotate(0 134.75665901891983 21.93022956958679)"><path d="M0 0 C84.39 -0.1, 169.23 0.04, 269.51 0 M0 0 C63.38 -0.71, 127.32 -0.53, 269.51 0 M269.51 0 C269.42 11.57, 268.88 23.22, 269.51 43.86 M269.51 0 C269.22 13.64, 269.18 26.77, 269.51 43.86 M269.51 43.86 C211.57 43.61, 153.98 44.28, 0 43.86 M269.51 43.86 C180.18 43.57, 91.06 43.88, 0 43.86 M0 43.86 C-0.41 33.17, -0.23 23.55, 0 0 M0 43.86 C0.39 35.06, 0.34 26.12, 0 0" stroke="#ccc" stroke-width="4" fill="none"></path></g><g stroke-linecap="round" transform="translate(526.6140979728817 156.2035090326385) rotate(0 134.75665901891983 21.930229569586785)"><path d="M0 0 C100.62 -0.59, 202.44 -1.16, 269.51 0 M0 0 C68.5 -0.01, 137.1 -0.18, 269.51 0 M269.51 0 C269.4 13.86, 270.08 27.74, 269.51 43.86 M269.51 0 C269.07 15.9, 269.47 32.05, 269.51 43.86 M269.51 43.86 C207.04 44.65, 144.13 44.16, 0 43.86 M269.51 43.86 C208.75 44.25, 148.19 43.95, 0 43.86 M0 43.86 C-0.73 33.32, -0.42 24.46, 0 0 M0 43.86 C-0.02 30.52, -0.34 17.53, 0 0" stroke="#ccc" stroke-width="4" fill="none"></path></g><g stroke-linecap="round" transform="translate(526.6140979728817 200.03046338593273) rotate(0 134.75665901891983 21.930229569586785)"><path d="M0 0 C89.72 0.85, 180.07 0.26, 269.51 0 M0 0 C90.62 -0.11, 181.27 0.17, 269.51 0 M269.51 0 C270.17 11.19, 269.64 22.82, 269.51 43.86 M269.51 0 C269.29 12.32, 269.72 24.11, 269.51 43.86 M269.51 43.86 C168.7 44.1, 68.95 43.36, 0 43.86 M269.51 43.86 C173 43.48, 76.91 43.24, 0 43.86 M0 43.86 C0.09 34.44, -0.17 24.32, 0 0 M0 43.86 C0.27 33.44, 0 22.86, 0 0" stroke="#ccc" stroke-width="4" fill="none"></path></g><g stroke-linecap="round" transform="translate(205.5609500082984 112.46407651231196) rotate(0 160.75665901891983 21.93022956958679)"><path d="M0 0 C83.17 0.1, 166.29 0.43, 321.51 0 M0 0 C70.21 -0.45, 140.01 -0.43, 321.51 0 M321.51 0 C322.2 17.08, 320.98 34.92, 321.51 43.86 M321.51 0 C321 13.09, 321.28 26.9, 321.51 43.86 M321.51 43.86 C212.87 43.89, 105.14 43.4, 0 43.86 M321.51 43.86 C199.54 43.86, 77.34 43.99, 0 43.86 M0 43.86 C0.41 27.48, -0.43 10.71, 0 0 M0 43.86 C0.04 27.62, 0.16 11.62, 0 0" stroke="#ccc" stroke-width="4" fill="none"></path></g><g stroke-linecap="round" transform="translate(205.5609500082984 243.94493957220195) rotate(0 160.2566590189199 21.930229569586785)"><path d="M0 0 C73.76 -0.62, 148.19 -0.07, 320.51 0 M0 0 C66.34 -0.48, 132.38 -0.66, 320.51 0 M320.51 0 C320.81 10.17, 320.31 22.42, 320.51 43.86 M320.51 0 C320.08 11.24, 320.28 23.16, 320.51 43.86 M320.51 43.86 C222.27 44.58, 124.06 44.42, 0 43.86 M320.51 43.86 C242.92 43.86, 165.39 43.61, 0 43.86 M0 43.86 C-0.36 34.21, 0.64 25.07, 0 0 M0 43.86 C0.28 27.46, -0.15 10.94, 0 0" stroke="#ccc" stroke-width="4" fill="none"></path></g><g stroke-linecap="round" transform="translate(205.5609500082984 68.6371221590068) rotate(0 160.25665901891983 21.93022956958679)"><path d="M0 0 C97.62 -1.12, 196.26 -0.11, 320.51 0 M0 0 C67.64 0.78, 134.89 0.93, 320.51 0 M320.51 0 C320.44 10.77, 319.92 22.3, 320.51 43.86 M320.51 0 C320.62 9.18, 320.41 17.74, 320.51 43.86 M320.51 43.86 C213.88 42.93, 106.41 43.57, 0 43.86 M320.51 43.86 C229.81 44.38, 138.56 44.33, 0 43.86 M0 43.86 C0.59 30.59, -0.42 17.13, 0 0 M0 43.86 C-0.18 30.98, 0.14 18.88, 0 0" stroke="#ccc" stroke-width="4" fill="none"></path></g><g stroke-linecap="round" transform="translate(205.5609500082984 156.29103086561258) rotate(0 160.7566590189199 21.930229569586793)"><path d="M0 0 C118.72 1.34, 236.7 0.98, 321.51 0 M0 0 C70.24 -0.01, 140.15 -0.44, 321.51 0 M321.51 0 C321.06 13.49, 320.81 28.23, 321.51 43.86 M321.51 0 C321.51 12.73, 321.7 26.11, 321.51 43.86 M321.51 43.86 C243.27 43.34, 164.89 43.08, 0 43.86 M321.51 43.86 C214.86 44.86, 108.53 44.57, 0 43.86 M0 43.86 C-0.59 32.46, -0.2 21.13, 0 0 M0 43.86 C0.27 29.26, 0.34 14.25, 0 0" stroke="#ccc" stroke-width="4" fill="none"></path></g><g stroke-linecap="round" transform="translate(205.5609500082984 200.11798521890682) rotate(0 160.25665901891995 21.930229569586793)"><path d="M0 0 C63.73 -0.65, 127.98 -0.26, 320.51 0 M0 0 C104.99 -0.92, 210.24 -0.7, 320.51 0 M320.51 0 C319.69 8.85, 320.39 18.28, 320.51 43.86 M320.51 0 C320.61 14.81, 320.27 29.97, 320.51 43.86 M320.51 43.86 C251.02 44.12, 181.87 44.58, 0 43.86 M320.51 43.86 C194.45 44.4, 68.25 44.68, 0 43.86 M0 43.86 C0.02 30.11, 0.41 15.41, 0 0 M0 43.86 C0.2 33.62, -0.27 22.77, 0 0" stroke="#ccc" stroke-width="4" fill="none"></path></g><g transform="translate(215.31760902721828 76.22126043519117) rotate(0 70.3125 12)"><text x="0" y="0" font-family="Consolas, Segoe UI Emoji" font-size="20px" fill="#ffffff" text-anchor="start" style="white-space: pre;" direction="ltr" dominant-baseline="text-before-edge">Es un string</text></g><g transform="translate(538.3176090272183 77.22126043519117) rotate(0 46.875 12)"><text x="0" y="0" font-family="Consolas, Segoe UI Emoji" font-size="20px" fill="#ffffff" text-anchor="start" style="white-space: pre;" direction="ltr" dominant-baseline="text-before-edge">Un texto</text></g><g transform="translate(34.31760902721828 122.22126043519117) rotate(0 29.296875 12)"><text x="0" y="0" font-family="Consolas, Segoe UI Emoji" font-size="20px" fill="#ff7b61" text-anchor="start" style="white-space: pre;" direction="ltr" dominant-baseline="text-before-edge">int64</text></g><g transform="translate(215.31760902721828 119.22126043519117) rotate(0 52.734375 12)"><text x="0" y="0" font-family="Consolas, Segoe UI Emoji" font-size="20px" fill="#ffffff" text-anchor="start" style="white-space: pre;" direction="ltr" dominant-baseline="text-before-edge">Es un int</text></g><g transform="translate(538.3176090272183 123.22126043519117) rotate(0 52.734375 12)"><text x="0" y="0" font-family="Consolas, Segoe UI Emoji" font-size="20px" fill="#ffffff" text-anchor="start" style="white-space: pre;" direction="ltr" dominant-baseline="text-before-edge">Un entero</text></g><g transform="translate(34.31760902721828 165.22126043519117) rotate(0 41.015625 12)"><text x="0" y="0" font-family="Consolas, Segoe UI Emoji" font-size="20px" fill="#ff7b61" text-anchor="start" style="white-space: pre;" direction="ltr" dominant-baseline="text-before-edge">float64</text></g><g transform="translate(215.31760902721828 165.22126043519117) rotate(0 64.453125 12)"><text x="0" y="0" font-family="Consolas, Segoe UI Emoji" font-size="20px" fill="#ffffff" text-anchor="start" style="white-space: pre;" direction="ltr" dominant-baseline="text-before-edge">Es un float</text></g><g transform="translate(538.3176090272183 166.22126043519117) rotate(0 58.59375 12)"><text x="0" y="0" font-family="Consolas, Segoe UI Emoji" font-size="20px" fill="#ffffff" text-anchor="start" style="white-space: pre;" direction="ltr" dominant-baseline="text-before-edge">Un decimal</text></g><g transform="translate(34.31760902721828 208.22126043519117) rotate(0 23.4375 12)"><text x="0" y="0" font-family="Consolas, Segoe UI Emoji" font-size="20px" fill="#ff7b61" text-anchor="start" style="white-space: pre;" direction="ltr" dominant-baseline="text-before-edge">bool</text></g><g transform="translate(34.31760902721828 255.22126043519117) rotate(0 58.59375 12)"><text x="0" y="0" font-family="Consolas, Segoe UI Emoji" font-size="20px" fill="#ff7b61" text-anchor="start" style="white-space: pre;" direction="ltr" dominant-baseline="text-before-edge">datetime64</text></g><g transform="translate(215.31760902721828 210.22126043519117) rotate(0 70.3125 12)"><text x="0" y="0" font-family="Consolas, Segoe UI Emoji" font-size="20px" fill="#ffffff" text-anchor="start" style="white-space: pre;" direction="ltr" dominant-baseline="text-before-edge">True o False</text></g><g transform="translate(538.3176090272183 209.22126043519117) rotate(0 76.171875 12)"><text x="0" y="0" font-family="Consolas, Segoe UI Emoji" font-size="20px" fill="#ffffff" text-anchor="start" style="white-space: pre;" direction="ltr" dominant-baseline="text-before-edge">Valor binario</text></g><g transform="translate(215.31760902721828 252.22126043519117) rotate(0 128.90625 12)"><text x="0" y="0" font-family="Consolas, Segoe UI Emoji" font-size="20px" fill="#ffffff" text-anchor="start" style="white-space: pre;" direction="ltr" dominant-baseline="text-before-edge">Valores fecha y tiempo</text></g><g transform="translate(538.3176090272183 254.22126043519117) rotate(0 111.328125 12)"><text x="0" y="0" font-family="Consolas, Segoe UI Emoji" font-size="20px" fill="#ffffff" text-anchor="start" style="white-space: pre;" direction="ltr" dominant-baseline="text-before-edge">Dia, hora, mes, etc</text></g><g stroke-linecap="round" transform="translate(526.1859583632023 22.24726994911734) rotate(0 135.29450791973608 21.93022956958679)"><path d="M0.06 0.7 L269.95 -0.63 L271.2 43.2 L0.28 43.81" stroke="none" stroke-width="0" fill="#fa5252"></path><path d="M0 0 C92.84 0.9, 186.03 0.68, 270.59 0 M0 0 C71.35 -0.34, 142.97 -0.55, 270.59 0 M270.59 0 C270.74 11.97, 269.93 24.57, 270.59 43.86 M270.59 0 C270.95 13.15, 270.58 26.43, 270.59 43.86 M270.59 43.86 C184.67 43.56, 97.82 44.05, 0 43.86 M270.59 43.86 C164.73 44.14, 58.23 43.67, 0 43.86 M0 43.86 C0.05 28.52, 0.68 12.25, 0 0 M0 43.86 C0.45 30.85, 0.39 18.2, 0 0" stroke="#ccc" stroke-width="4" fill="none"></path></g><g stroke-linecap="round" transform="translate(21.851115767733575 22.24726994911734) rotate(0 91.07304415812726 21.93022956958679)"><path d="M0.59 -0.41 L181.5 0.66 L181.41 43.6 L0.28 44.56" stroke="none" stroke-width="0" fill="#fa5252"></path><path d="M0 0 C37.53 0.22, 75.83 0.63, 182.15 0 M0 0 C59.61 -0.29, 118.66 -0.39, 182.15 0 M182.15 0 C181.9 9.15, 182.86 18.2, 182.15 43.86 M182.15 0 C182.21 12.68, 182.47 25.29, 182.15 43.86 M182.15 43.86 C139.68 43.87, 96.69 43.28, 0 43.86 M182.15 43.86 C111.91 44, 41.59 44.54, 0 43.86 M0 43.86 C0.33 30.41, -0.82 18.17, 0 0 M0 43.86 C-0.02 30.67, 0.26 18.46, 0 0" stroke="#ccc" stroke-width="4" fill="none"></path></g><g stroke-linecap="round" transform="translate(205.13281039861897 22.3347917820914) rotate(0 160.2566590189199 21.93022956958679)"><path d="M0.61 -0.66 L320.79 -0.05 L319.86 44.51 L0.38 44.3" stroke="none" stroke-width="0" fill="#fa5252"></path><path d="M0 0 C102.82 -0.08, 206.26 -0.36, 320.51 0 M0 0 C97.68 0.64, 195.48 0.61, 320.51 0 M320.51 0 C320.39 11.74, 320.56 22.35, 320.51 43.86 M320.51 0 C320.51 10.87, 320.34 22.45, 320.51 43.86 M320.51 43.86 C230.29 44.56, 139.1 44.79, 0 43.86 M320.51 43.86 C199.15 43.04, 77.55 43.18, 0 43.86 M0 43.86 C-0.22 27.39, 0.22 12.57, 0 0 M0 43.86 C-0.1 35.08, -0.44 25.29, 0 0" stroke="#ccc" stroke-width="4" fill="none"></path></g><g transform="translate(30.317609027218282 32.22126043519117) rotate(0 70.3125 12)"><text x="0" y="0" font-family="Consolas, Segoe UI Emoji" font-size="20px" fill="#ffffff" text-anchor="start" style="white-space: pre;" direction="ltr" dominant-baseline="text-before-edge">Tipo de dato</text></g><g transform="translate(211.31760902721828 31.22126043519117) rotate(0 52.734375 12)"><text x="0" y="0" font-family="Consolas, Segoe UI Emoji" font-size="20px" fill="#ffffff" text-anchor="start" style="white-space: pre;" direction="ltr" dominant-baseline="text-before-edge">Resultado</text></g><g transform="translate(534.3176090272183 32.22126043519117) rotate(0 64.453125 12)"><text x="0" y="0" font-family="Consolas, Segoe UI Emoji" font-size="20px" fill="#ffffff" text-anchor="start" style="white-space: pre;" direction="ltr" dominant-baseline="text-before-edge">Descripción</text></g><g stroke-linecap="round" transform="translate(527.030908268982 288.02896780663593) rotate(0 134.75665901891983 32.741963872246146)"><path d="M0 0 C77 0.05, 150.15 0.13, 269.51 0 M0 0 C61.34 -1.97, 123.16 -1.97, 269.51 0 M269.51 0 C270.58 17.37, 269.73 34.17, 269.51 65.48 M269.51 0 C269.77 26.42, 269.92 53, 269.51 65.48 M269.51 65.48 C182.88 64.76, 97.86 63.75, 0 65.48 M269.51 65.48 C210.34 64.74, 149.55 64.13, 0 65.48 M0 65.48 C0.1 40.32, 0.8 17.72, 0 0 M0 65.48 C-0.93 51.66, -0.69 38.6, 0 0" stroke="#ccc" stroke-width="4" fill="none"></path></g><g stroke-linecap="round" transform="translate(205.97776030439866 288.11648963961) rotate(0 159.78658361445633 33.21203927670966)"><path d="M0 0 C77.79 0.65, 157.16 1.08, 319.57 0 M0 0 C117.15 1.07, 234.43 0.94, 319.57 0 M319.57 0 C320.92 17.11, 322.08 33.33, 319.57 66.42 M319.57 0 C320.81 15.35, 320.17 28.36, 319.57 66.42 M319.57 66.42 C238.77 66.29, 158.68 68.2, 0 66.42 M319.57 66.42 C240.73 67.33, 162.47 67.39, 0 66.42 M0 66.42 C0.68 39.14, -1.94 14.3, 0 0 M0 66.42 C-0.02 41.89, -0.28 18.78, 0 0" stroke="#ccc" stroke-width="4" fill="none"></path></g><g transform="translate(30.84401642064762 311.22010011841996) rotate(0 76.171875 12)"><text x="0" y="0" font-family="Consolas, Segoe UI Emoji" font-size="20px" fill="#ff7b61" text-anchor="start" style="white-space: pre;" direction="ltr" dominant-baseline="text-before-edge">timedelta[ns]</text></g><g stroke-linecap="round" transform="translate(21.851115767733575 67.37450877760867) rotate(0 91.07304415812726 21.93022956958679)"><path d="M0 0 C50.3 -0.06, 101.43 -0.96, 182.15 0 M0 0 C65.62 -0.84, 130.77 -0.79, 182.15 0 M182.15 0 C181.47 16.7, 182.19 34.89, 182.15 43.86 M182.15 0 C182.1 9.04, 181.88 18.34, 182.15 43.86 M182.15 43.86 C114.29 44.66, 45.91 43.92, 0 43.86 M182.15 43.86 C125.39 43.89, 68.04 43.3, 0 43.86 M0 43.86 C0.07 29.7, 0.23 14.32, 0 0 M0 43.86 C-0.21 26.44, 0.16 8.73, 0 0" stroke="#ccc" stroke-width="4" fill="none"></path></g><g stroke-linecap="round" transform="translate(21.851115767733575 113.44189841502691) rotate(0 91.07304415812726 21.93022956958679)"><path d="M0 0 C44.58 -0.37, 89.64 -0.44, 182.15 0 M0 0 C47.23 0.29, 94 -0.35, 182.15 0 M182.15 0 C181.54 10.91, 182.81 20.99, 182.15 43.86 M182.15 0 C182.16 10.68, 182.18 20.76, 182.15 43.86 M182.15 43.86 C123.17 43.05, 66.11 44.1, 0 43.86 M182.15 43.86 C128.87 43.53, 76.16 43.1, 0 43.86 M0 43.86 C-0.62 31.05, 0.32 18.69, 0 0 M0 43.86 C0.13 34.12, 0.21 24.82, 0 0" stroke="#ccc" stroke-width="4" fill="none"></path></g><g stroke-linecap="round" transform="translate(21.910964958806574 156.50928805244513) rotate(0 91.07304415812726 21.930229569586785)"><path d="M0 0 C46.81 -0.43, 94.06 0.41, 182.15 0 M0 0 C38.83 -0.18, 77.53 -0.15, 182.15 0 M182.15 0 C181.98 16.95, 181.72 33.08, 182.15 43.86 M182.15 0 C181.99 13.93, 182.09 27.37, 182.15 43.86 M182.15 43.86 C137.25 43.75, 92.72 44.62, 0 43.86 M182.15 43.86 C134.22 43.48, 86.39 43.37, 0 43.86 M0 43.86 C0.04 35.13, -0.45 24.47, 0 0 M0 43.86 C0.28 26.93, -0.07 10.8, 0 0" stroke="#ccc" stroke-width="4" fill="none"></path></g><g stroke-linecap="round" transform="translate(21.85111576773346 200.75622526308263) rotate(0 91.07304415812726 21.930229569586785)"><path d="M0 0 C42.22 -0.06, 83.66 -0.47, 182.15 0 M0 0 C49.97 -0.61, 99.58 -0.77, 182.15 0 M182.15 0 C181.55 10.79, 182.1 21.86, 182.15 43.86 M182.15 0 C182.39 10.73, 182.29 21.68, 182.15 43.86 M182.15 43.86 C129.27 43.35, 77.7 43.73, 0 43.86 M182.15 43.86 C128.42 43.57, 73.76 43.83, 0 43.86 M0 43.86 C0.79 30.01, -0.52 17.2, 0 0 M0 43.86 C0.3 29.07, 0.22 13.6, 0 0" stroke="#ccc" stroke-width="4" fill="none"></path></g><g stroke-linecap="round" transform="translate(21.910964958806574 244.00316247372018) rotate(0 91.07304415812726 21.930229569586785)"><path d="M0 0 C51.33 -0.64, 102.33 -0.79, 182.15 0 M0 0 C71.81 0.49, 143.68 0.05, 182.15 0 M182.15 0 C182.29 9.62, 181.96 20.86, 182.15 43.86 M182.15 0 C182.28 14.64, 181.95 28.83, 182.15 43.86 M182.15 43.86 C134.06 44.34, 86.22 44.34, 0 43.86 M182.15 43.86 C123.12 44.35, 64.85 44.44, 0 43.86 M0 43.86 C-0.14 28.16, -0.16 13.95, 0 0 M0 43.86 C0.25 31.77, 0.24 19.9, 0 0" stroke="#ccc" stroke-width="4" fill="none"></path></g><g stroke-linecap="round" transform="translate(21.910964958806574 288.1304013022115) rotate(0 91.07304415812726 33.682114681173076)"><path d="M0 0 C40.85 0.51, 85.88 0.24, 182.15 0 M0 0 C41.54 0.4, 83.43 2.11, 182.15 0 M182.15 0 C184.38 19.7, 180.78 43.11, 182.15 67.36 M182.15 0 C182.85 21.94, 182.19 44.3, 182.15 67.36 M182.15 67.36 C122.12 68.45, 64.12 68.52, 0 67.36 M182.15 67.36 C119.1 66.64, 55.86 66.83, 0 67.36 M0 67.36 C-2.18 53.6, 1.05 37.36, 0 0 M0 67.36 C-0.43 51.68, -0.42 34.21, 0 0" stroke="#ccc" stroke-width="4" fill="none"></path></g><g stroke-linecap="round" transform="translate(527.030908268982 355.2160558262003) rotate(0 134.75665901891983 21.9302295695868)"><path d="M0 0 C86.24 -0.39, 173.53 -0.07, 269.51 0 M0 0 C64.81 0.19, 129.13 0.59, 269.51 0 M269.51 0 C269.55 10.15, 269.71 20.55, 269.51 43.86 M269.51 0 C269.76 12.32, 269.43 24.97, 269.51 43.86 M269.51 43.86 C205.34 42.77, 141.05 43.4, 0 43.86 M269.51 43.86 C185.18 44.64, 100.79 44.52, 0 43.86 M0 43.86 C0.33 30.61, 0.56 17.89, 0 0 M0 43.86 C0.1 32.1, -0.17 20.87, 0 0" stroke="#ccc" stroke-width="4" fill="none"></path></g><g stroke-linecap="round" transform="translate(205.97776030439866 355.3035776591744) rotate(0 160.2566590189199 21.9302295695868)"><path d="M0 0 C93.53 0.32, 187.11 -0.58, 320.51 0 M0 0 C104.06 0.55, 208.26 0.84, 320.51 0 M320.51 0 C320.07 15.29, 320.71 29.49, 320.51 43.86 M320.51 0 C320.28 10.48, 320.5 21.11, 320.51 43.86 M320.51 43.86 C230.11 43.85, 140.19 43.71, 0 43.86 M320.51 43.86 C222.78 43.8, 125.31 43.97, 0 43.86 M0 43.86 C-0.4 32.91, 0.41 22.69, 0 0 M0 43.86 C0.16 33.59, -0.13 22.79, 0 0" stroke="#ccc" stroke-width="4" fill="none"></path></g><g stroke-linecap="round" transform="translate(21.910964958806574 355.31748932177595) rotate(0 91.07304415812726 21.9302295695868)"><path d="M0 0 C37.74 -0.26, 74.18 -0.45, 182.15 0 M0 0 C62.25 -0.29, 125.12 0.06, 182.15 0 M182.15 0 C181.47 13.33, 182.2 27.7, 182.15 43.86 M182.15 0 C182.05 14.09, 182.31 28.46, 182.15 43.86 M182.15 43.86 C132.17 44.25, 82.73 43.94, 0 43.86 M182.15 43.86 C126.34 44.11, 71.37 44.2, 0 43.86 M0 43.86 C0.59 29.4, -0.08 14.35, 0 0 M0 43.86 C0.14 28.36, -0.12 13.89, 0 0" stroke="#ccc" stroke-width="4" fill="none"></path></g><g transform="translate(30.84401642064762 366.4670373290576) rotate(0 46.875 12)"><text x="0" y="0" font-family="Consolas, Segoe UI Emoji" font-size="20px" fill="#ff7b61" text-anchor="start" style="white-space: pre;" direction="ltr" dominant-baseline="text-before-edge">category</text></g><g transform="translate(214.3774582182914 301.10910249939013) rotate(0 146.484375 24)"><text x="0" y="0" font-family="Consolas, Segoe UI Emoji" font-size="20px" fill="#ffffff" text-anchor="start" style="white-space: pre;" direction="ltr" dominant-baseline="text-before-edge">Diferencia entre valores </text><text x="0" y="24" font-family="Consolas, Segoe UI Emoji" font-size="20px" fill="#ffffff" text-anchor="start" style="white-space: pre;" direction="ltr" dominant-baseline="text-before-edge">de fecha y tiempo</text></g><g transform="translate(539.257759836145 310.63030897080534) rotate(0 64.453125 12)"><text x="0" y="0" font-family="Consolas, Segoe UI Emoji" font-size="20px" fill="#ffffff" text-anchor="start" style="white-space: pre;" direction="ltr" dominant-baseline="text-before-edge">En segundos</text></g><g transform="translate(539.257759836145 367.0393575064195) rotate(0 93.75 12)"><text x="0" y="0" font-family="Consolas, Segoe UI Emoji" font-size="20px" fill="#ffffff" text-anchor="start" style="white-space: pre;" direction="ltr" dominant-baseline="text-before-edge">Valores de texto</text></g><g transform="translate(217.72618318314431 368.91965912427327) rotate(0 70.31249999999997 12)"><text x="0" y="0" font-family="Consolas, Segoe UI Emoji" font-size="20px" fill="#ffffff" text-anchor="start" style="white-space: pre;" direction="ltr" dominant-baseline="text-before-edge">Lista finita</text></g><g stroke-linecap="round" transform="translate(10 10) rotate(0 399.621733306491 144.1435054187612)"><path d="M0 0 C278.63 0, 557.25 0, 799.24 0 M0 0 C252.74 0, 505.48 0, 799.24 0 M799.24 0 C799.24 77.2, 799.24 154.41, 799.24 288.29 M799.24 0 C799.24 106.84, 799.24 213.68, 799.24 288.29 M799.24 288.29 C552.64 288.29, 306.05 288.29, 0 288.29 M799.24 288.29 C555.38 288.29, 311.52 288.29, 0 288.29 M0 288.29 C0 229.13, 0 169.98, 0 0 M0 288.29 C0 180.13, 0 71.98, 0 0" stroke="#ffec99" stroke-width="2" fill="none"></path></g><g stroke-linecap="round" transform="translate(850.4580488276538 11) rotate(0 96.4747363942945 64.22792812010083)"><path d="M0 0 L192.95 0 L192.95 128.46 L0 128.46" stroke="none" stroke-width="0" fill="#ffec99"></path><path d="M0 0 C52.7 0, 105.39 0, 192.95 0 M0 0 C46.55 0, 93.11 0, 192.95 0 M192.95 0 C192.95 39.06, 192.95 78.11, 192.95 128.46 M192.95 0 C192.95 29.33, 192.95 58.66, 192.95 128.46 M192.95 128.46 C117.02 128.46, 41.09 128.46, 0 128.46 M192.95 128.46 C151.9 128.46, 110.86 128.46, 0 128.46 M0 128.46 C0 81.96, 0 35.46, 0 0 M0 128.46 C0 94.76, 0 61.05, 0 0" stroke="#ffec99" stroke-width="2" fill="none"></path></g><g stroke-linecap="round"><g transform="translate(809.3948622162475 140.08373619590557) rotate(0 20.20790411372309 0)"><path d="M0 0 C10.22 0, 20.44 0, 40.42 0 M0 0 C10.23 0, 20.45 0, 40.42 0" stroke="#ffec99" stroke-width="2" fill="none"></path></g></g><mask></mask><g transform="translate(862.1797558672763 39.04258445468086) rotate(0 83.92578125 34.5)"><text x="0" y="0" font-family="Helvetica, Segoe UI Emoji" font-size="20px" fill="#1e1e1e" text-anchor="start" style="white-space: pre;" direction="ltr" dominant-baseline="text-before-edge">Los tipos de datos</text><text x="0" y="23" font-family="Helvetica, Segoe UI Emoji" font-size="20px" fill="#1e1e1e" text-anchor="start" style="white-space: pre;" direction="ltr" dominant-baseline="text-before-edge">más comunes son </text><text x="0" y="46" font-family="Helvetica, Segoe UI Emoji" font-size="20px" fill="#1e1e1e" text-anchor="start" style="white-space: pre;" direction="ltr" dominant-baseline="text-before-edge">los primeros 5</text></g></svg>